<svg xmlns="http://www.w3.org/2000/svg" viewBox="0 0 95.15 110.15" x="0px" y="0px"><g data-name="Layer 2"><g data-name="Capa 1"><path d="M91.77,0H3.38A3.39,3.39,0,0,0,0,3.38v8.18a1.4,1.4,0,0,0,2.79,0V3.38a.6.6,0,0,1,.59-.59H91.77a.59.59,0,0,1,.59.59V60.3H2.79V18.06a1.4,1.4,0,0,0-2.79,0V68.17a3.39,3.39,0,0,0,3.38,3.38H32.19L25.93,85.33H18.38a1.4,1.4,0,0,0,0,2.79H76.77a1.4,1.4,0,0,0,0-2.79H69.23L63,71.55H75.33a1.4,1.4,0,1,0,0-2.79H3.38a.6.6,0,0,1-.59-.59V63.09H92.36v5.08a.59.59,0,0,1-.59.59H81.84a1.4,1.4,0,0,0,0,2.79h9.93a3.39,3.39,0,0,0,3.38-3.38V3.38A3.39,3.39,0,0,0,91.77,0ZM38.84,85.33l3.43-7.11A.46.46,0,0,1,42.7,78h9.75a.49.49,0,0,1,.44.27l3.42,7.11Zm27.32,0H59.4L55.4,77a3.29,3.29,0,0,0-2.95-1.86H42.7a3.3,3.3,0,0,0-3,1.85l-4,8.32H29l6.27-13.78H59.9Z"/><path d="M39.28,20.93a4.35,4.35,0,1,0-4.35-4.35,4.35,4.35,0,0,0,4.35,4.35Zm0-5.91a1.56,1.56,0,1,1-1.56,1.56A1.56,1.56,0,0,1,39.28,15Z"/><path d="M46.85,6.45H11.76A2.32,2.32,0,0,0,9.44,8.77V41.52a2.33,2.33,0,0,0,2.32,2.33H42.4a2.52,2.52,0,0,0-1.29,1.76A2.48,2.48,0,0,0,42,48a13.68,13.68,0,0,0,8.69,3.19,13.25,13.25,0,0,0,4-.61,12.82,12.82,0,0,0,8-6.91A4.16,4.16,0,0,0,66,42.48l1-1a4.14,4.14,0,0,0,.4-5.37L68.58,35V54.32a2.32,2.32,0,0,0,2.32,2.32H83.39a2.32,2.32,0,0,0,2.32-2.32V8.77a2.32,2.32,0,0,0-2.32-2.32H70.9a2.32,2.32,0,0,0-2.32,2.32v8.31L58.92,27.73a4.15,4.15,0,0,0-5.38.4l-1,1a4.1,4.1,0,0,0-1.17,3.51,8.83,8.83,0,0,0-1.83.89l-.41.27v-25a2.32,2.32,0,0,0-2.32-2.32ZM12.23,15.24a6.32,6.32,0,0,1,4.65,4.69,2.28,2.28,0,0,0,1,1.42,2.2,2.2,0,0,0,1.7.24,11.33,11.33,0,0,1,2.83-.37A11.07,11.07,0,0,1,32.9,28.65a2.77,2.77,0,0,0,1.61,1.67,2.67,2.67,0,0,0,2.26-.18,8.69,8.69,0,0,1,9.61.74V34H12.23Zm34.15-6V27.57a11.43,11.43,0,0,0-10.87.09,13.85,13.85,0,0,0-16.06-8.9,9.08,9.08,0,0,0-7.22-6.36V9.23ZM12.23,36.81H46.38v.61a19.92,19.92,0,0,0-.67,2.25c-.14.52-.26,1-.39,1.39H12.23ZM71.08,18.48A3.89,3.89,0,1,1,76.57,24L65.38,34.13l-4.46-4.46ZM79.36,25h3.56v13H71.37V32.47c7.21-6.6,7.29-6.48,8-7.43Zm-8,28.81v-13H82.92v13ZM82.92,9.23v13H80.54a6.68,6.68,0,0,0-6.74-7.83,6.81,6.81,0,0,0-2.43.51V9.23ZM54.55,31.07l1-1a1.35,1.35,0,0,1,1.91,0L65,37.64a1.35,1.35,0,0,1,0,1.9l-1,1a1.35,1.35,0,0,1-1.91,0L54.55,33a1.33,1.33,0,0,1,0-1.9Zm-3.48,4.77a5.86,5.86,0,0,1,1.67-.73l7.37,7.37h0c-2.3,5.37-10,8.14-16,3.66,2.8-1.11,3.59-3.12,4.27-5.79C48.91,38.39,49.33,37,51.07,35.84Z"/></g></g></svg>